<svg xmlns="http://www.w3.org/2000/svg" viewBox="0 0 160 160" role="img" aria-labelledby="title desc">
  <title id="title">Logo GR</title>
  <desc id="desc">Referencia visual del logo GR en azul marino y dorado</desc>
  <rect width="160" height="160" rx="28" fill="#092b40"/>
  <circle cx="80" cy="80" r="57" fill="none" stroke="#e6bd63" stroke-width="7"/>
  <path d="M58 65c0-11 8-19 21-19 8 0 14 3 19 8l-8 9c-3-3-6-5-11-5-7 0-11 4-11 11v25c0 7 4 11 11 11 4 0 8-2 11-5v-8H79V82h24v24c-6 8-14 12-24 12-13 0-21-8-21-19z" fill="#fff"/>
  <path d="M108 47h10v67h-10z" fill="#e6bd63"/>
</svg>
